<?xml version="1.0" encoding="utf-8"?><!-- Uploaded to: SVG Repo, www.svgrepo.com, Generator: SVG Repo Mixer Tools -->
<svg width="800px" height="800px" viewBox="0 0 24 24" fill="none" xmlns="http://www.w3.org/2000/svg">
<path d="M18.05 6.08C16.4776 4.51428 14.349 3.63523 12.13 3.63523C9.91101 3.63523 7.78239 4.51428 6.21 6.08L5 7.29V4.38C5 4.18109 4.92098 3.99033 4.78033 3.84967C4.63968 3.70902 4.44891 3.63 4.25 3.63C4.05109 3.63 3.86032 3.70902 3.71967 3.84967C3.57902 3.99033 3.5 4.18109 3.5 4.38V9.12C3.49998 9.31985 3.57868 9.51166 3.71905 9.6539C3.85942 9.79614 4.05017 9.87738 4.25 9.88H9C9.19891 9.88 9.38968 9.80099 9.53033 9.66033C9.67098 9.51968 9.75 9.32892 9.75 9.13C9.75 8.93109 9.67098 8.74033 9.53033 8.59967C9.38968 8.45902 9.19891 8.38 9 8.38H6L7.27 7.14C8.55985 5.85275 10.3077 5.12979 12.13 5.12979C13.9523 5.12979 15.7001 5.85275 16.99 7.14C23.18 13.83 13.99 23.05 7.27 16.86C7.12937 16.7196 6.93875 16.6407 6.74 16.6407C6.54125 16.6407 6.35063 16.7196 6.21 16.86C6.13924 16.929 6.08301 17.0114 6.04461 17.1024C6.00621 17.1934 5.98643 17.2912 5.98643 17.39C5.98643 17.4888 6.00621 17.5866 6.04461 17.6776C6.08301 17.7686 6.13924 17.8511 6.21 17.92C7.78008 19.4901 9.90957 20.3722 12.13 20.3722C14.3504 20.3722 16.4799 19.4901 18.05 17.92C19.6201 16.3499 20.5021 14.2204 20.5021 12C20.5021 9.77957 19.6201 7.65009 18.05 6.08Z" stroke="#fff" stroke-width="0.6" fill="#fff"/>
</svg>