<!DOCTYPE svg PUBLIC "-//W3C//DTD SVG 1.1//EN" "http://www.w3.org/Graphics/SVG/1.1/DTD/svg11.dtd">

<!-- Uploaded to: SVG Repo, www.svgrepo.com, Transformed by: SVG Repo Mixer Tools -->
<svg width="800px" height="800px" viewBox="0 0 24 24" fill="none" xmlns="http://www.w3.org/2000/svg">

    <g id="SVGRepo_bgCarrier" stroke-width="0" />

    <g id="SVGRepo_tracerCarrier" stroke-linecap="round" stroke-linejoin="round" />

    <g id="SVGRepo_iconCarrier">
        <path stroke="#fff" stroke-width="0.6" 
            d="M4.24999 18.5001H2.74999V7.50005C2.74471 7.14333 2.80991 6.78907 2.94185 6.45761C3.0738 6.12614 3.2699 5.82399 3.51889 5.56849C3.76789 5.31299 4.06489 5.10917 4.39284 4.96872C4.72079 4.82828 5.07325 4.75396 5.42999 4.75005H7.83999C7.94894 4.74771 8.05712 4.76882 8.15719 4.81195C8.25727 4.85509 8.34689 4.91924 8.41999 5.00005L11.09 8.23005H16C16.3618 8.22863 16.7203 8.29968 17.0542 8.43901C17.3881 8.57834 17.6908 8.78313 17.9443 9.0413C18.1978 9.29948 18.397 9.6058 18.5303 9.94222C18.6635 10.2786 18.728 10.6383 18.72 11.0001V11.5001H17.22V11.0001C17.224 10.8373 17.1954 10.6755 17.1359 10.524C17.0764 10.3725 16.9871 10.2344 16.8734 10.1179C16.7598 10.0014 16.6239 9.90888 16.4739 9.84571C16.3239 9.78253 16.1628 9.75001 16 9.75005H10.73C10.621 9.74982 10.5133 9.7255 10.4148 9.67882C10.3162 9.63215 10.2292 9.56427 10.16 9.48005L7.48999 6.25005H5.42999C5.10815 6.26051 4.8035 6.39778 4.58245 6.63194C4.36141 6.8661 4.2419 7.17815 4.24999 7.50005V18.5001Z"
            fill="#ffffff" />
        <path stroke="#fff" stroke-width="0.6" 
            d="M17.12 19.25H3.49998C3.37158 19.2489 3.24553 19.2154 3.13362 19.1524C3.0217 19.0895 2.92756 18.9992 2.85998 18.89C2.79599 18.7772 2.76236 18.6497 2.76236 18.52C2.76236 18.3903 2.79599 18.2628 2.85998 18.15L6.23998 11.65C6.3059 11.5297 6.40276 11.4292 6.52056 11.3588C6.63835 11.2885 6.77279 11.2509 6.90998 11.25H20.5C20.6284 11.2511 20.7544 11.2846 20.8663 11.3476C20.9783 11.4105 21.0724 11.5008 21.14 11.61C21.204 11.7228 21.2376 11.8503 21.2376 11.98C21.2376 12.1097 21.204 12.2372 21.14 12.35L17.76 18.85C17.6966 18.966 17.6044 19.0637 17.4923 19.1338C17.3803 19.2038 17.252 19.2439 17.12 19.25ZM4.72998 17.75H16.67L19.27 12.75H7.32998L4.72998 17.75Z"
            fill="#ffffff" />
    </g>

</svg>