<?xml version="1.0" encoding="UTF-8"?>
<svg version="1.1" xmlns="http://www.w3.org/2000/svg" width="100" height="100">
<path d="M0 0 C1.33723114 -0.01051392 1.33723114 -0.01051392 2.70147705 -0.02124023 C5.64765593 -0.03884221 8.59287389 -0.02718963 11.5390625 -0.01367188 C13.58642766 -0.01636615 15.63379157 -0.02024804 17.68115234 -0.02526855 C21.97180363 -0.03116659 26.26212181 -0.02259067 30.55273438 -0.00390625 C36.05437738 0.01888331 41.55523988 0.00576189 47.05685425 -0.01819611 C51.28448372 -0.03264572 55.51192795 -0.0280519 59.73956299 -0.01768494 C61.76816907 -0.01501534 63.79679193 -0.01829556 65.82537842 -0.02760315 C68.66008088 -0.03775484 71.49351695 -0.02228697 74.328125 0 C75.16772766 -0.00809692 76.00733032 -0.01619385 76.87237549 -0.02453613 C80.43401574 0.02737877 82.71186999 0.20667523 85.68395996 2.25012207 C87.3853361 4.85656016 87.66981362 6.22326405 87.68164062 9.31445312 C87.69424927 10.26223633 87.70685791 11.21001953 87.71984863 12.18652344 C87.71175171 13.20327148 87.70365479 14.22001953 87.6953125 15.26757812 C87.70105286 16.84297363 87.70105286 16.84297363 87.70690918 18.45019531 C87.70962946 20.66928059 87.70226027 22.88839787 87.68554688 25.10742188 C87.66413995 28.50528408 87.68534575 31.90103174 87.7109375 35.29882812 C87.70829425 37.4550828 87.70316932 39.61133615 87.6953125 41.76757812 C87.70340942 42.78432617 87.71150635 43.80107422 87.71984863 44.84863281 C87.70723999 45.79641602 87.69463135 46.74419922 87.68164062 47.72070312 C87.67845825 48.5524707 87.67527588 49.38423828 87.67199707 50.24121094 C86.93687929 53.53572581 85.95205959 54.60070351 83.1640625 56.51757812 C80.09861671 56.91208882 77.39311974 57.06471431 74.328125 57.03515625 C73.43663757 57.04216553 72.54515015 57.0491748 71.62664795 57.05639648 C68.68046907 57.07399846 65.73525111 57.06234588 62.7890625 57.04882812 C60.74169734 57.0515224 58.69433343 57.05540429 56.64697266 57.0604248 C52.35632137 57.06632284 48.06600319 57.05774692 43.77539062 57.0390625 C38.27374762 57.01627294 32.77288512 57.02939436 27.27127075 57.05335236 C23.04364128 57.06780197 18.81619705 57.06320815 14.58856201 57.05284119 C12.55995593 57.05017159 10.53133307 57.05345181 8.50274658 57.0627594 C5.66804412 57.07291109 2.83460805 57.05744322 0 57.03515625 C-0.83960266 57.04325317 -1.67920532 57.0513501 -2.54425049 57.05969238 C-6.10589074 57.00777748 -8.38374499 56.82848102 -11.35583496 54.78503418 C-13.0572111 52.17859609 -13.34168862 50.8118922 -13.35351562 47.72070312 C-13.37242859 46.29902832 -13.37242859 46.29902832 -13.39172363 44.84863281 C-13.38362671 43.83188477 -13.37552979 42.81513672 -13.3671875 41.76757812 C-13.3710144 40.71731445 -13.37484131 39.66705078 -13.37878418 38.58496094 C-13.38150446 36.36587566 -13.37413527 34.14675838 -13.35742188 31.92773438 C-13.33601495 28.52987217 -13.35722075 25.13412451 -13.3828125 21.73632812 C-13.38016925 19.58007345 -13.37504432 17.4238201 -13.3671875 15.26757812 C-13.37528442 14.25083008 -13.38338135 13.23408203 -13.39172363 12.18652344 C-13.37911499 11.23874023 -13.36650635 10.29095703 -13.35351562 9.31445312 C-13.35033325 8.48268555 -13.34715088 7.65091797 -13.34387207 6.79394531 C-11.77098686 -0.25512061 -6.12478786 -0.05906596 0 0 Z M-2.8359375 12.51757812 C-2.8359375 15.15757813 -2.8359375 17.79757813 -2.8359375 20.51757812 C-0.1959375 20.51757812 2.4440625 20.51757812 5.1640625 20.51757812 C5.1640625 17.87757812 5.1640625 15.23757812 5.1640625 12.51757812 C2.5240625 12.51757812 -0.1159375 12.51757812 -2.8359375 12.51757812 Z M9.1640625 12.51757812 C9.1640625 15.15757813 9.1640625 17.79757813 9.1640625 20.51757812 C11.8040625 20.51757812 14.4440625 20.51757812 17.1640625 20.51757812 C17.1640625 17.87757812 17.1640625 15.23757812 17.1640625 12.51757812 C14.5240625 12.51757812 11.8840625 12.51757812 9.1640625 12.51757812 Z M21.1640625 12.51757812 C21.1640625 15.15757813 21.1640625 17.79757813 21.1640625 20.51757812 C23.8040625 20.51757812 26.4440625 20.51757812 29.1640625 20.51757812 C29.1640625 17.87757812 29.1640625 15.23757812 29.1640625 12.51757812 C26.5240625 12.51757812 23.8840625 12.51757812 21.1640625 12.51757812 Z M33.1640625 12.51757812 C33.1640625 15.15757813 33.1640625 17.79757813 33.1640625 20.51757812 C35.8040625 20.51757812 38.4440625 20.51757812 41.1640625 20.51757812 C41.1640625 17.87757812 41.1640625 15.23757812 41.1640625 12.51757812 C38.5240625 12.51757812 35.8840625 12.51757812 33.1640625 12.51757812 Z M45.1640625 12.51757812 C45.1640625 15.15757813 45.1640625 17.79757813 45.1640625 20.51757812 C47.8040625 20.51757812 50.4440625 20.51757812 53.1640625 20.51757812 C53.1640625 17.87757812 53.1640625 15.23757812 53.1640625 12.51757812 C50.5240625 12.51757812 47.8840625 12.51757812 45.1640625 12.51757812 Z M57.1640625 12.51757812 C57.1640625 15.15757813 57.1640625 17.79757813 57.1640625 20.51757812 C59.8040625 20.51757812 62.4440625 20.51757812 65.1640625 20.51757812 C65.1640625 17.87757812 65.1640625 15.23757812 65.1640625 12.51757812 C62.5240625 12.51757812 59.8840625 12.51757812 57.1640625 12.51757812 Z M69.1640625 12.51757812 C69.1640625 15.15757813 69.1640625 17.79757813 69.1640625 20.51757812 C71.8040625 20.51757812 74.4440625 20.51757812 77.1640625 20.51757812 C77.1640625 17.87757812 77.1640625 15.23757812 77.1640625 12.51757812 C74.5240625 12.51757812 71.8840625 12.51757812 69.1640625 12.51757812 Z M-2.8359375 24.51757812 C-2.8359375 27.15757813 -2.8359375 29.79757813 -2.8359375 32.51757812 C1.7840625 32.51757812 6.4040625 32.51757812 11.1640625 32.51757812 C11.1640625 29.87757812 11.1640625 27.23757812 11.1640625 24.51757812 C6.5440625 24.51757812 1.9240625 24.51757812 -2.8359375 24.51757812 Z M15.1640625 24.51757812 C15.1640625 27.15757813 15.1640625 29.79757813 15.1640625 32.51757812 C17.8040625 32.51757812 20.4440625 32.51757812 23.1640625 32.51757812 C23.1640625 29.87757812 23.1640625 27.23757812 23.1640625 24.51757812 C20.5240625 24.51757812 17.8840625 24.51757812 15.1640625 24.51757812 Z M27.1640625 24.51757812 C27.1640625 27.15757813 27.1640625 29.79757813 27.1640625 32.51757812 C29.8040625 32.51757812 32.4440625 32.51757812 35.1640625 32.51757812 C35.1640625 29.87757812 35.1640625 27.23757812 35.1640625 24.51757812 C32.5240625 24.51757812 29.8840625 24.51757812 27.1640625 24.51757812 Z M39.1640625 24.51757812 C39.1640625 27.15757813 39.1640625 29.79757813 39.1640625 32.51757812 C41.8040625 32.51757812 44.4440625 32.51757812 47.1640625 32.51757812 C47.1640625 29.87757812 47.1640625 27.23757812 47.1640625 24.51757812 C44.5240625 24.51757812 41.8840625 24.51757812 39.1640625 24.51757812 Z M51.1640625 24.51757812 C51.1640625 27.15757813 51.1640625 29.79757813 51.1640625 32.51757812 C53.8040625 32.51757812 56.4440625 32.51757812 59.1640625 32.51757812 C59.1640625 29.87757812 59.1640625 27.23757812 59.1640625 24.51757812 C56.5240625 24.51757812 53.8840625 24.51757812 51.1640625 24.51757812 Z M63.1640625 24.51757812 C63.1640625 27.15757813 63.1640625 29.79757813 63.1640625 32.51757812 C67.7840625 32.51757812 72.4040625 32.51757812 77.1640625 32.51757812 C77.1640625 29.87757812 77.1640625 27.23757812 77.1640625 24.51757812 C72.5440625 24.51757812 67.9240625 24.51757812 63.1640625 24.51757812 Z M-2.8359375 36.51757812 C-2.8359375 39.15757813 -2.8359375 41.79757813 -2.8359375 44.51757812 C-0.1959375 44.51757812 2.4440625 44.51757812 5.1640625 44.51757812 C5.1640625 41.87757812 5.1640625 39.23757812 5.1640625 36.51757812 C2.5240625 36.51757812 -0.1159375 36.51757812 -2.8359375 36.51757812 Z M9.1640625 36.51757812 C9.1640625 39.15757813 9.1640625 41.79757813 9.1640625 44.51757812 C11.8040625 44.51757812 14.4440625 44.51757812 17.1640625 44.51757812 C17.1640625 41.87757812 17.1640625 39.23757812 17.1640625 36.51757812 C14.5240625 36.51757812 11.8840625 36.51757812 9.1640625 36.51757812 Z M21.1640625 36.51757812 C21.1640625 39.15757813 21.1640625 41.79757813 21.1640625 44.51757812 C31.7240625 44.51757812 42.2840625 44.51757812 53.1640625 44.51757812 C53.1640625 41.87757812 53.1640625 39.23757812 53.1640625 36.51757812 C42.6040625 36.51757812 32.0440625 36.51757812 21.1640625 36.51757812 Z M57.1640625 36.51757812 C57.1640625 39.15757813 57.1640625 41.79757813 57.1640625 44.51757812 C59.8040625 44.51757812 62.4440625 44.51757812 65.1640625 44.51757812 C65.1640625 41.87757812 65.1640625 39.23757812 65.1640625 36.51757812 C62.5240625 36.51757812 59.8840625 36.51757812 57.1640625 36.51757812 Z M69.1640625 36.51757812 C69.1640625 39.15757813 69.1640625 41.79757813 69.1640625 44.51757812 C71.8040625 44.51757812 74.4440625 44.51757812 77.1640625 44.51757812 C77.1640625 41.87757812 77.1640625 39.23757812 77.1640625 36.51757812 C74.5240625 36.51757812 71.8840625 36.51757812 69.1640625 36.51757812 Z " fill="#FFFFFF" transform="translate(12.8359375,31.482421875)"/>
<path d="M0 0 C1.65 0 3.3 0 5 0 C5.28503036 5.51058687 5.37011456 9.36609248 2 14 C-2.77948786 17.48432688 -8.03192761 18.60414687 -13.80078125 19.41015625 C-16.36273122 20.0972867 -17.19128449 21.13099398 -19 23 C-22.1875 23.1875 -22.1875 23.1875 -25 23 C-23.02353887 18.31890786 -21.54210079 16.25521323 -17 14 C-13.67012579 13.16551579 -10.33764872 12.55570497 -6.9609375 11.94140625 C-3.58740341 10.86881824 -2.65022695 10.08079912 -1 7 C-0.27518916 3.34725531 -0.27518916 3.34725531 0 0 Z " fill="#FFFFFF" transform="translate(73,5)"/>
</svg>
